<svg width="269" height="161" viewBox="0 0 269 161" fill="none" xmlns="http://www.w3.org/2000/svg">
<path d="M64.6957 38.2067C-68.1501 5.29199 34.6401 125.582 99.6993 148.883L64.6957 38.2067Z" fill="#C760EB" fill-opacity="0.53"/>
<path d="M130.516 38.2067C263.362 5.29199 160.572 125.582 95.5126 148.883L130.516 38.2067Z" fill="#C760EB" fill-opacity="0.53"/>
<path d="M95.035 20.726C-21.4001 -52.8116 40.1731 94.2634 95.0355 137.107L95.035 20.726Z" fill="#710198"/>
<path d="M100.177 20.726C216.612 -52.8116 155.039 94.2634 100.176 137.107L100.177 20.726Z" fill="#710198"/>
<rect x="94" y="20" width="6" height="129" fill="#D8D8D8"/>
<path d="M130.535 160V139H141.155C142.355 139 143.445 139.29 144.425 139.87C145.425 140.43 146.215 141.2 146.795 142.18C147.395 143.16 147.695 144.25 147.695 145.45C147.695 146.69 147.385 147.81 146.765 148.81C146.145 149.81 145.315 150.62 144.275 151.24C143.235 151.84 142.085 152.14 140.825 152.14H133.775V160H130.535ZM133.775 149.02H140.645C141.305 149.02 141.915 148.86 142.475 148.54C143.035 148.2 143.475 147.76 143.795 147.22C144.135 146.68 144.305 146.09 144.305 145.45C144.305 144.83 144.135 144.27 143.795 143.77C143.475 143.27 143.035 142.87 142.475 142.57C141.915 142.27 141.305 142.12 140.645 142.12H133.775V149.02ZM160.429 160.3C158.809 160.3 157.329 160.07 155.989 159.61C154.669 159.15 153.569 158.41 152.689 157.39L154.789 155.53C155.489 156.25 156.299 156.8 157.219 157.18C158.159 157.54 159.199 157.72 160.339 157.72C160.779 157.72 161.229 157.69 161.689 157.63C162.149 157.57 162.569 157.46 162.949 157.3C163.349 157.14 163.659 156.93 163.879 156.67C164.119 156.41 164.239 156.1 164.239 155.74C164.239 155.14 163.839 154.68 163.039 154.36C162.639 154.22 162.159 154.08 161.599 153.94C161.039 153.78 160.399 153.63 159.679 153.49C158.479 153.23 157.429 152.95 156.529 152.65C155.629 152.35 154.899 151.96 154.339 151.48C153.919 151.1 153.599 150.67 153.379 150.19C153.159 149.69 153.049 149.12 153.049 148.48C153.049 147.78 153.229 147.16 153.589 146.62C153.949 146.06 154.439 145.58 155.059 145.18C155.699 144.76 156.439 144.45 157.279 144.25C158.119 144.03 159.029 143.92 160.009 143.92C160.869 143.92 161.739 144.01 162.619 144.19C163.519 144.37 164.369 144.65 165.169 145.03C165.969 145.41 166.639 145.88 167.179 146.44L165.499 148.48C165.019 148.1 164.469 147.76 163.849 147.46C163.229 147.14 162.589 146.9 161.929 146.74C161.289 146.56 160.679 146.47 160.099 146.47C159.619 146.47 159.149 146.5 158.689 146.56C158.229 146.62 157.799 146.73 157.399 146.89C157.019 147.03 156.709 147.23 156.469 147.49C156.249 147.73 156.139 148.02 156.139 148.36C156.159 148.6 156.229 148.83 156.349 149.05C156.489 149.25 156.679 149.43 156.919 149.59C157.279 149.83 157.779 150.05 158.419 150.25C159.079 150.43 159.829 150.6 160.669 150.76C161.729 150.96 162.699 151.2 163.579 151.48C164.459 151.76 165.189 152.11 165.769 152.53C166.269 152.87 166.639 153.28 166.879 153.76C167.139 154.22 167.269 154.76 167.269 155.38C167.269 156.4 166.959 157.28 166.339 158.02C165.739 158.76 164.919 159.33 163.879 159.73C162.839 160.11 161.689 160.3 160.429 160.3ZM174.266 160V144.25H177.356V160H174.266ZM175.766 140.59C175.106 140.59 174.596 140.42 174.236 140.08C173.876 139.74 173.696 139.26 173.696 138.64C173.696 138.06 173.876 137.59 174.236 137.23C174.616 136.87 175.126 136.69 175.766 136.69C176.426 136.69 176.936 136.86 177.296 137.2C177.656 137.54 177.836 138.02 177.836 138.64C177.836 139.22 177.646 139.69 177.266 140.05C176.906 140.41 176.406 140.59 175.766 140.59ZM195.651 160.3C194.071 160.3 192.601 160.05 191.241 159.55C189.881 159.03 188.691 158.29 187.671 157.33C186.651 156.37 185.861 155.23 185.301 153.91C184.741 152.57 184.461 151.1 184.461 149.5C184.461 147.98 184.761 146.57 185.361 145.27C185.961 143.97 186.781 142.84 187.821 141.88C188.861 140.9 190.061 140.15 191.421 139.63C192.781 139.09 194.231 138.82 195.771 138.82C196.971 138.82 198.131 138.99 199.251 139.33C200.391 139.65 201.411 140.08 202.311 140.62C203.231 141.16 203.971 141.75 204.531 142.39L202.491 144.91C201.831 144.31 201.141 143.8 200.421 143.38C199.701 142.94 198.941 142.61 198.141 142.39C197.341 142.15 196.491 142.03 195.591 142.03C194.571 142.03 193.591 142.21 192.651 142.57C191.711 142.93 190.871 143.44 190.131 144.1C189.411 144.74 188.831 145.52 188.391 146.44C187.971 147.36 187.761 148.38 187.761 149.5C187.761 150.7 187.971 151.77 188.391 152.71C188.831 153.65 189.431 154.45 190.191 155.11C190.971 155.75 191.851 156.24 192.831 156.58C193.831 156.92 194.891 157.09 196.011 157.09C196.991 157.09 197.881 156.97 198.681 156.73C199.481 156.47 200.211 156.14 200.871 155.74C201.531 155.32 202.131 154.89 202.671 154.45L204.261 157.12C203.741 157.62 203.031 158.12 202.131 158.62C201.251 159.1 200.251 159.5 199.131 159.82C198.031 160.14 196.871 160.3 195.651 160.3ZM217.511 160.3C215.891 160.3 214.451 159.95 213.191 159.25C211.931 158.53 210.941 157.55 210.221 156.31C209.521 155.07 209.171 153.67 209.171 152.11C209.171 150.51 209.541 149.1 210.281 147.88C211.021 146.64 212.031 145.67 213.311 144.97C214.611 144.27 216.091 143.92 217.751 143.92C218.751 143.92 219.681 144.05 220.541 144.31C221.401 144.57 222.151 144.92 222.791 145.36C223.431 145.78 223.941 146.26 224.321 146.8C224.701 147.32 224.901 147.85 224.921 148.39L224.111 148.33V144.25H227.231V160H224.111V155.92L224.771 155.95C224.731 156.45 224.501 156.96 224.081 157.48C223.681 157.98 223.141 158.45 222.461 158.89C221.801 159.31 221.041 159.65 220.181 159.91C219.341 160.17 218.451 160.3 217.511 160.3ZM218.261 157.45C219.441 157.45 220.481 157.22 221.381 156.76C222.281 156.28 222.981 155.64 223.481 154.84C223.981 154.02 224.231 153.11 224.231 152.11C224.231 151.09 223.981 150.18 223.481 149.38C222.981 148.58 222.281 147.95 221.381 147.49C220.481 147.03 219.441 146.8 218.261 146.8C217.101 146.8 216.071 147.03 215.171 147.49C214.291 147.95 213.591 148.58 213.071 149.38C212.571 150.18 212.321 151.09 212.321 152.11C212.321 153.11 212.571 154.02 213.071 154.84C213.591 155.64 214.291 156.28 215.171 156.76C216.071 157.22 217.101 157.45 218.261 157.45ZM235.753 160V144.25H238.873V149.65L238.243 149.02C238.503 148.08 238.953 147.23 239.593 146.47C240.253 145.69 241.003 145.07 241.843 144.61C242.703 144.15 243.593 143.92 244.513 143.92C245.073 143.92 245.613 143.98 246.133 144.1C246.673 144.22 247.093 144.37 247.393 144.55L246.583 147.82C246.223 147.62 245.793 147.47 245.293 147.37C244.813 147.25 244.353 147.19 243.913 147.19C243.173 147.19 242.493 147.32 241.873 147.58C241.273 147.84 240.743 148.19 240.283 148.63C239.843 149.07 239.493 149.56 239.233 150.1C238.993 150.64 238.873 151.21 238.873 151.81V160H235.753ZM260.646 160.3C258.766 160.3 257.096 159.96 255.636 159.28C254.176 158.58 253.036 157.63 252.216 156.43C251.396 155.21 250.986 153.83 250.986 152.29C250.986 151.01 251.226 149.86 251.706 148.84C252.186 147.8 252.856 146.92 253.716 146.2C254.576 145.46 255.576 144.89 256.716 144.49C257.856 144.09 259.076 143.89 260.376 143.89C261.556 143.89 262.666 144.08 263.706 144.46C264.746 144.84 265.656 145.37 266.436 146.05C267.216 146.73 267.816 147.54 268.236 148.48C268.656 149.4 268.856 150.42 268.836 151.54L268.806 153.04H253.596L252.906 150.58H266.136L265.686 150.91V150.19C265.606 149.51 265.306 148.91 264.786 148.39C264.266 147.87 263.616 147.47 262.836 147.19C262.076 146.89 261.256 146.74 260.376 146.74C259.136 146.74 258.036 146.93 257.076 147.31C256.116 147.67 255.366 148.25 254.826 149.05C254.306 149.83 254.046 150.84 254.046 152.08C254.046 153.16 254.336 154.11 254.916 154.93C255.516 155.73 256.346 156.35 257.406 156.79C258.486 157.23 259.716 157.45 261.096 157.45C262.356 157.45 263.426 157.28 264.306 156.94C265.206 156.58 266.006 156.14 266.706 155.62L268.146 157.9C267.606 158.34 266.926 158.74 266.106 159.1C265.306 159.46 264.426 159.75 263.466 159.97C262.526 160.19 261.586 160.3 260.646 160.3Z" fill="#868686"/>
</svg>
