<svg width="141" height="56" viewBox="0 0 141 56" fill="none" xmlns="http://www.w3.org/2000/svg">
<path d="M20.9814 12.4998C-19.6969 1.34759 12.0572 40.8724 31.9999 48.674L20.9814 12.4998Z" fill="#C760EB" fill-opacity="0.53"/>
<path d="M41.6347 12.2734C83.9633 1.41855 51.7115 40.8154 30.9817 48.4998L41.6347 12.2734Z" fill="#C760EB" fill-opacity="0.53"/>
<path d="M31.0371 6.83504C-6.06233 -17.4167 13.5566 31.0867 31.0373 45.216L31.0371 6.83504Z" fill="#710198"/>
<path d="M31.5967 6.83504C68.6961 -17.4167 49.0772 31.0867 31.5965 45.216L31.5967 6.83504Z" fill="#710198"/>
<rect x="30.9814" y="6.5" width="1" height="42" rx="0.5" stroke="#D8D8D8" stroke-miterlimit="1.74345" stroke-linejoin="round"/>
<path d="M71.7675 28.8345V18.3345H77.0775C77.6775 18.3345 78.2225 18.4795 78.7125 18.7695C79.2125 19.0495 79.6075 19.4345 79.8975 19.9245C80.1975 20.4145 80.3475 20.9595 80.3475 21.5595C80.3475 22.1795 80.1925 22.7395 79.8825 23.2395C79.5725 23.7395 79.1575 24.1445 78.6375 24.4545C78.1175 24.7545 77.5425 24.9045 76.9125 24.9045H73.3875V28.8345H71.7675ZM73.3875 23.3445H76.8225C77.1525 23.3445 77.4575 23.2645 77.7375 23.1045C78.0175 22.9345 78.2375 22.7145 78.3975 22.4445C78.5675 22.1745 78.6525 21.8795 78.6525 21.5595C78.6525 21.2495 78.5675 20.9695 78.3975 20.7195C78.2375 20.4695 78.0175 20.2695 77.7375 20.1195C77.4575 19.9695 77.1525 19.8945 76.8225 19.8945H73.3875V23.3445ZM86.7146 28.9845C85.9046 28.9845 85.1646 28.8695 84.4946 28.6395C83.8346 28.4095 83.2846 28.0395 82.8446 27.5295L83.8946 26.5995C84.2446 26.9595 84.6496 27.2345 85.1096 27.4245C85.5796 27.6045 86.0996 27.6945 86.6696 27.6945C86.8896 27.6945 87.1146 27.6795 87.3446 27.6495C87.5746 27.6195 87.7846 27.5645 87.9746 27.4845C88.1746 27.4045 88.3296 27.2995 88.4396 27.1695C88.5596 27.0395 88.6196 26.8845 88.6196 26.7045C88.6196 26.4045 88.4196 26.1745 88.0196 26.0145C87.8196 25.9445 87.5796 25.8745 87.2996 25.8045C87.0196 25.7245 86.6996 25.6495 86.3396 25.5795C85.7396 25.4495 85.2146 25.3095 84.7646 25.1595C84.3146 25.0095 83.9496 24.8145 83.6696 24.5745C83.4596 24.3845 83.2996 24.1695 83.1896 23.9295C83.0796 23.6795 83.0246 23.3945 83.0246 23.0745C83.0246 22.7245 83.1146 22.4145 83.2946 22.1445C83.4746 21.8645 83.7196 21.6245 84.0296 21.4245C84.3496 21.2145 84.7196 21.0595 85.1396 20.9595C85.5596 20.8495 86.0146 20.7945 86.5046 20.7945C86.9346 20.7945 87.3696 20.8395 87.8096 20.9295C88.2596 21.0195 88.6846 21.1595 89.0846 21.3495C89.4846 21.5395 89.8196 21.7745 90.0896 22.0545L89.2496 23.0745C89.0096 22.8845 88.7346 22.7145 88.4246 22.5645C88.1146 22.4045 87.7946 22.2845 87.4646 22.2045C87.1446 22.1145 86.8396 22.0695 86.5496 22.0695C86.3096 22.0695 86.0746 22.0845 85.8446 22.1145C85.6146 22.1445 85.3996 22.1995 85.1996 22.2795C85.0096 22.3495 84.8546 22.4495 84.7346 22.5795C84.6246 22.6995 84.5696 22.8445 84.5696 23.0145C84.5796 23.1345 84.6146 23.2495 84.6746 23.3595C84.7446 23.4595 84.8396 23.5495 84.9596 23.6295C85.1396 23.7495 85.3896 23.8595 85.7096 23.9595C86.0396 24.0495 86.4146 24.1345 86.8346 24.2145C87.3646 24.3145 87.8496 24.4345 88.2896 24.5745C88.7296 24.7145 89.0946 24.8895 89.3846 25.0995C89.6346 25.2695 89.8196 25.4745 89.9396 25.7145C90.0696 25.9445 90.1346 26.2145 90.1346 26.5245C90.1346 27.0345 89.9796 27.4745 89.6696 27.8445C89.3696 28.2145 88.9596 28.4995 88.4396 28.6995C87.9196 28.8895 87.3446 28.9845 86.7146 28.9845ZM93.633 28.8345V20.9595H95.178V28.8345H93.633ZM94.383 19.1295C94.053 19.1295 93.798 19.0445 93.618 18.8745C93.438 18.7045 93.348 18.4645 93.348 18.1545C93.348 17.8645 93.438 17.6295 93.618 17.4495C93.808 17.2695 94.063 17.1795 94.383 17.1795C94.713 17.1795 94.968 17.2645 95.148 17.4345C95.328 17.6045 95.418 17.8445 95.418 18.1545C95.418 18.4445 95.323 18.6795 95.133 18.8595C94.953 19.0395 94.703 19.1295 94.383 19.1295ZM104.325 28.9845C103.535 28.9845 102.8 28.8595 102.12 28.6095C101.44 28.3495 100.845 27.9795 100.335 27.4995C99.8254 27.0195 99.4304 26.4495 99.1504 25.7895C98.8704 25.1195 98.7304 24.3845 98.7304 23.5845C98.7304 22.8245 98.8804 22.1195 99.1804 21.4695C99.4804 20.8195 99.8904 20.2545 100.41 19.7745C100.93 19.2845 101.53 18.9095 102.21 18.6495C102.89 18.3795 103.615 18.2445 104.385 18.2445C104.985 18.2445 105.565 18.3295 106.125 18.4995C106.695 18.6595 107.205 18.8745 107.655 19.1445C108.115 19.4145 108.485 19.7095 108.765 20.0295L107.745 21.2895C107.415 20.9895 107.07 20.7345 106.71 20.5245C106.35 20.3045 105.97 20.1395 105.57 20.0295C105.17 19.9095 104.745 19.8495 104.295 19.8495C103.785 19.8495 103.295 19.9395 102.825 20.1195C102.355 20.2995 101.935 20.5545 101.565 20.8845C101.205 21.2045 100.915 21.5945 100.695 22.0545C100.485 22.5145 100.38 23.0245 100.38 23.5845C100.38 24.1845 100.485 24.7195 100.695 25.1895C100.915 25.6595 101.215 26.0595 101.595 26.3895C101.985 26.7095 102.425 26.9545 102.915 27.1245C103.415 27.2945 103.945 27.3795 104.505 27.3795C104.995 27.3795 105.44 27.3195 105.84 27.1995C106.24 27.0695 106.605 26.9045 106.935 26.7045C107.265 26.4945 107.565 26.2795 107.835 26.0595L108.63 27.3945C108.37 27.6445 108.015 27.8945 107.565 28.1445C107.125 28.3845 106.625 28.5845 106.065 28.7445C105.515 28.9045 104.935 28.9845 104.325 28.9845ZM115.255 28.9845C114.445 28.9845 113.725 28.8095 113.095 28.4595C112.465 28.0995 111.97 27.6095 111.61 26.9895C111.26 26.3695 111.085 25.6695 111.085 24.8895C111.085 24.0895 111.27 23.3845 111.64 22.7745C112.01 22.1545 112.515 21.6695 113.155 21.3195C113.805 20.9695 114.545 20.7945 115.375 20.7945C115.875 20.7945 116.34 20.8595 116.77 20.9895C117.2 21.1195 117.575 21.2945 117.895 21.5145C118.215 21.7245 118.47 21.9645 118.66 22.2345C118.85 22.4945 118.95 22.7595 118.96 23.0295L118.555 22.9995V20.9595H120.115V28.8345H118.555V26.7945L118.885 26.8095C118.865 27.0595 118.75 27.3145 118.54 27.5745C118.34 27.8245 118.07 28.0595 117.73 28.2795C117.4 28.4895 117.02 28.6595 116.59 28.7895C116.17 28.9195 115.725 28.9845 115.255 28.9845ZM115.63 27.5595C116.22 27.5595 116.74 27.4445 117.19 27.2145C117.64 26.9745 117.99 26.6545 118.24 26.2545C118.49 25.8445 118.615 25.3895 118.615 24.8895C118.615 24.3795 118.49 23.9245 118.24 23.5245C117.99 23.1245 117.64 22.8095 117.19 22.5795C116.74 22.3495 116.22 22.2345 115.63 22.2345C115.05 22.2345 114.535 22.3495 114.085 22.5795C113.645 22.8095 113.295 23.1245 113.035 23.5245C112.785 23.9245 112.66 24.3795 112.66 24.8895C112.66 25.3895 112.785 25.8445 113.035 26.2545C113.295 26.6545 113.645 26.9745 114.085 27.2145C114.535 27.4445 115.05 27.5595 115.63 27.5595ZM124.376 28.8345V20.9595H125.936V23.6595L125.621 23.3445C125.751 22.8745 125.976 22.4495 126.296 22.0695C126.626 21.6795 127.001 21.3695 127.421 21.1395C127.851 20.9095 128.296 20.7945 128.756 20.7945C129.036 20.7945 129.306 20.8245 129.566 20.8845C129.836 20.9445 130.046 21.0195 130.196 21.1095L129.791 22.7445C129.611 22.6445 129.396 22.5695 129.146 22.5195C128.906 22.4595 128.676 22.4295 128.456 22.4295C128.086 22.4295 127.746 22.4945 127.436 22.6245C127.136 22.7545 126.871 22.9295 126.641 23.1495C126.421 23.3695 126.246 23.6145 126.116 23.8845C125.996 24.1545 125.936 24.4395 125.936 24.7395V28.8345H124.376ZM136.823 28.9845C135.883 28.9845 135.048 28.8145 134.318 28.4745C133.588 28.1245 133.018 27.6495 132.608 27.0495C132.198 26.4395 131.993 25.7495 131.993 24.9795C131.993 24.3395 132.113 23.7645 132.353 23.2545C132.593 22.7345 132.928 22.2945 133.358 21.9345C133.788 21.5645 134.288 21.2795 134.858 21.0795C135.428 20.8795 136.038 20.7795 136.688 20.7795C137.278 20.7795 137.833 20.8745 138.353 21.0645C138.873 21.2545 139.328 21.5195 139.718 21.8595C140.108 22.1995 140.408 22.6045 140.618 23.0745C140.828 23.5345 140.928 24.0445 140.918 24.6045L140.903 25.3545H133.298L132.953 24.1245H139.568L139.343 24.2895V23.9295C139.303 23.5895 139.153 23.2895 138.893 23.0295C138.633 22.7695 138.308 22.5695 137.918 22.4295C137.538 22.2795 137.128 22.2045 136.688 22.2045C136.068 22.2045 135.518 22.2995 135.038 22.4895C134.558 22.6695 134.183 22.9595 133.913 23.3595C133.653 23.7495 133.523 24.2545 133.523 24.8745C133.523 25.4145 133.668 25.8895 133.958 26.2995C134.258 26.6995 134.673 27.0095 135.203 27.2295C135.743 27.4495 136.358 27.5595 137.048 27.5595C137.678 27.5595 138.213 27.4745 138.653 27.3045C139.103 27.1245 139.503 26.9045 139.853 26.6445L140.573 27.7845C140.303 28.0045 139.963 28.2045 139.553 28.3845C139.153 28.5645 138.713 28.7095 138.233 28.8195C137.763 28.9295 137.293 28.9845 136.823 28.9845Z" fill="#868686"/>
</svg>
